<svg xmlns="http://www.w3.org/2000/svg" width="82" height="93"><defs><filter filterUnits="userSpaceOnUse" id="a" x="0" y="0" width="82" height="93"><feOffset in="SourceAlpha" dx="2.696" dy="1.315"/><feGaussianBlur result="blurOut" stdDeviation="5.196"/><feFlood flood-color="#000" result="floodOut"/><feComposite operator="atop" in="floodOut" in2="blurOut"/><feComponentTransfer><feFuncA type="linear" slope=".05"/></feComponentTransfer><feMerge><feMergeNode/><feMergeNode in="SourceGraphic"/></feMerge></filter></defs><g filter="url(#a)"><path fill-rule="evenodd" fill="#98C21D" d="M25 27h19a6 6 0 016 6v24a6 6 0 01-6 6H25V27z"/></g><path fill-rule="evenodd" fill="#779D08" d="M30 27v-6.001L25 27h5zm0 36v6l-5-6h5zm7-16.001a2 2 0 11-.002 4.002A2 2 0 0137 46.999zM37 40a2 2 0 110 4 2 2 0 010-4z"/></svg>